<?xml version="1.0" encoding="utf-8"?>

<!-- License Agreement at http://iconmonstr.com/license/ -->

<!DOCTYPE svg PUBLIC "-//W3C//DTD SVG 1.1//EN" "http://www.w3.org/Graphics/SVG/1.1/DTD/svg11.dtd">
<svg version="1.1" xmlns="http://www.w3.org/2000/svg" xmlns:xlink="http://www.w3.org/1999/xlink" x="0px" y="0px"
	 width="512px" height="512px" viewBox="0 0 512 512" enable-background="new 0 0 512 512" xml:space="preserve">
<path id="beer-8-icon" d="M298.725,211.268c-8.027-21.325-15.75-95.299-15.75-102.258c0-18.627,14.174-8.474,0.867-51.545
	c-3.072-9.951-52.611-9.954-55.684,0c-12.963,41.985,0.867,33.957,0.867,51.545c0,6.958-7.723,80.933-15.75,102.258
	c-8.031,21.326-32.373,25.192-32.373,65.77c0,24.227,0,137.757,0,160.628c0,22.872,17.35,24.335,75.098,24.335
	s75.098-1.463,75.098-24.335c0-22.871,0-136.401,0-160.628C331.098,236.46,306.756,232.594,298.725,211.268z M241.055,291.778
	v137.75c-7.625,1.125-22.875,0.5-26-5v-135c0-47.376,16.418-32.407,33.5-90C244.289,229.599,241.055,245.028,241.055,291.778z"/>
</svg>
