<?xml version="1.0" encoding="UTF-8" standalone="no"?>
<svg width="349px" height="79px" viewBox="0 0 349 79" version="1.1" xmlns="http://www.w3.org/2000/svg" xmlns:xlink="http://www.w3.org/1999/xlink" xmlns:sketch="http://www.bohemiancoding.com/sketch/ns">
    <title>logo</title>
    <description>Created with Sketch (http://www.bohemiancoding.com/sketch)</description>
    <defs></defs>
    <g id="Page-1" stroke="none" stroke-width="1" fill="none" fill-rule="evenodd" sketch:type="MSPage">
        <path d="M329.836155,68.9786942 L329.836155,27.4698204 C333.501426,25.5391311 336,21.7428786 336,17.3833981 C336,11.2933398 331.124036,6.29906796 325.001294,5.96056311 C322.460652,2.48539806 318.191772,0 313.163555,0 C309.946361,0 306.718939,1.0456165 304.064638,3.13287379 C302.785441,2.72394175 301.438704,2.51095631 300.069003,2.51095631 C296.836372,2.51095631 293.809831,3.67679126 291.491684,5.7061165 C290.890004,5.61297087 290.278675,5.56545146 289.66175,5.56545146 C283.231607,5.56545146 278,10.6979272 278,17.0066505 C278,21.5439029 280.70621,25.4726796 284.618096,27.3212039 L284.618096,68.9786942 C284.618096,71.1367573 282.834861,72.8866456 280.634425,72.8866456 L280.634425,78 L333.819826,78 L333.819826,72.8864563 C331.619776,72.8864563 329.836155,71.1367573 329.836155,68.9786942 L329.836155,68.9786942 Z M300,70 L294,70 L294,27 C294.399574,27.2323044 296.919766,28.1393701 300,27.9184305 L300,70 L300,70 Z M323.635603,23.1918581 C321.584572,23.1918581 319.761623,22.2483239 318.59775,20.7844557 C318.59756,20.7844557 317.120741,21.7902742 317.12055,21.7904596 C312.14029,25.5384592 316.750392,32.3005777 317.092707,35.5512291 C317.420147,38.6589601 315.436434,41 312.315166,41 C309.272469,41 307.487661,38.4995417 307.728903,35.5512291 C307.983685,32.4399761 312.840749,26.2660371 307.455432,21.4289878 C306.657713,20.7127174 306.252084,20.3974028 305.419466,19.6210725 C304.027892,21.2041338 301.960078,22.2086547 299.650259,22.2086547 C297.671314,22.2086547 295.869915,21.4714375 294.518961,20.2652338 C293.362145,21.8147431 291.485417,22.8235276 289.365159,22.8235276 C285.849895,22.8235276 283,20.0535411 283,16.6364273 C283,13.2193135 285.849895,10.449327 289.365159,10.449327 C290.669009,10.449327 291.88113,10.8315603 292.890531,11.4853609 C294.145942,9.09593936 296.700626,7.45837925 299.650259,7.45837925 C301.586677,7.45837925 303.352605,8.16463961 304.693261,9.32524227 C306.311774,6.73228428 309.242909,5 312.591116,5 C316.700808,5 320.181937,7.61130964 321.377847,11.2199108 C322.079642,10.9611341 322.839982,10.8182136 323.635222,10.8182136 C327.150677,10.8182136 330,13.5880148 330,17.0051286 C330.000381,20.4218716 327.151059,23.1918581 323.635603,23.1918581 L323.635603,23.1918581 Z M333,63 L333,56.1551153 C343.155636,50.3574688 345.484864,36.2675563 337.707208,36.2675563 L333,36.2675563 L333,30 L338.864884,30 C354.903967,30 351.13355,56.25349 333,63 L333,63 Z" id="icono" fill="#F8E81C" sketch:type="MSShapeGroup"></path>
        <text id="Ciego.es" sketch:type="MSTextLayer" font-family="Cubano" font-size="72" font-weight="normal" sketch:alignment="middle" letter-spacing="-1" fill="#A92929">
            <tspan x="-1.22" y="53.7997665">Ciego.es</tspan>
        </text>
        <text id="Subtitulo" sketch:type="MSTextLayer" font-family="Cubano" font-size="24" font-weight="normal" sketch:alignment="middle" letter-spacing="-1.04347825" fill="#F2F2F2">
            <tspan x="1.79599988" y="78">BEBER BARATO ES POSIBLE</tspan>
        </text>
    </g>
</svg>