<?xml version="1.0" encoding="UTF-8" standalone="no"?>
<svg width="316px" height="72px" viewBox="0 0 316 72" version="1.1" xmlns="http://www.w3.org/2000/svg" xmlns:xlink="http://www.w3.org/1999/xlink" xmlns:sketch="http://www.bohemiancoding.com/sketch/ns">
    <!-- Generator: Sketch 3.0.2 (7799) - http://www.bohemiancoding.com/sketch -->
    <title>ciego</title>
    <description>Created with Sketch.</description>
    <defs></defs>
    <g id="Page-1" stroke="none" stroke-width="1" fill="none" fill-rule="evenodd" sketch:type="MSPage">
        <g id="logo" sketch:type="MSLayerGroup">
            <g id="Page-1" sketch:type="MSShapeGroup">
                <path d="M298.455635,63.6726408 L298.455635,25.3567573 C301.811165,23.5745826 304.098592,20.0703495 304.098592,16.0462136 C304.098592,10.4246214 299.634681,5.81452427 294.029354,5.50205826 C291.703414,2.29421359 287.795284,0 283.191987,0 C280.246669,0 277.291986,0.965184462 274.861993,2.8918835 C273.690897,2.51440777 272.457968,2.31780582 271.204017,2.31780582 C268.244566,2.31780582 265.473789,3.39396116 263.351542,5.26718446 C262.800708,5.18120388 262.24104,5.13733981 261.67625,5.13733981 C255.789499,5.13733981 251,9.87500972 251,15.6984466 C251,19.8866796 253.477516,23.5132427 257.05882,25.2195728 L257.05882,63.6726408 C257.05882,65.664699 255.426281,67.2799806 253.411798,67.2799806 L253.411798,72 L302.102658,72 L302.102658,67.2798058 C300.088527,67.2798058 298.455635,65.664699 298.455635,63.6726408 L298.455635,63.6726408 L298.455635,63.6726408 Z M271.140845,64.6153846 L265.647887,64.6153846 L265.647887,24.9230769 C266.013695,25.1375118 268.320913,25.9748032 271.140845,25.7708589 L271.140845,64.6153846 L271.140845,64.6153846 Z M292.779073,21.407869 C290.901369,21.407869 289.232472,20.5369144 288.166954,19.1856514 C288.16678,19.1856514 286.814763,20.1140993 286.814588,20.1142704 C282.255195,23.5739623 286.475711,29.8159179 286.789098,32.8165192 C287.088867,35.6851939 285.272792,37.8461538 282.415293,37.8461538 C279.629725,37.8461538 277.995746,35.5380385 278.216601,32.8165192 C278.449852,29.9445933 282.89646,24.2455727 277.966241,19.7806041 C277.235934,19.1194314 276.864584,18.8283718 276.102328,18.1117592 C274.828352,19.5730466 272.935283,20.5002966 270.82066,20.5002966 C269.008949,20.5002966 267.359781,19.8197885 266.122992,18.7063697 C265.063936,20.1366859 263.345804,21.0678716 261.404723,21.0678716 C258.186524,21.0678716 255.577465,18.510961 255.577465,15.3567021 C255.577465,12.2024432 258.186524,9.64553262 261.404723,9.64553262 C262.598389,9.64553262 263.708077,9.99836335 264.632176,10.6018716 C265.781496,8.39625172 268.120291,6.88465777 270.82066,6.88465777 C272.593437,6.88465777 274.210131,7.53659041 275.437492,8.60791594 C276.91923,6.21441626 279.602663,4.61538462 282.667923,4.61538462 C286.430317,4.61538462 289.617266,7.02582428 290.712113,10.3568407 C291.354602,10.1179699 292.050688,9.98604332 292.778724,9.98604332 C295.997099,9.98604332 298.605634,12.5427829 298.605634,15.6970418 C298.605983,18.8509584 295.997448,21.407869 292.779073,21.407869 L292.779073,21.407869 L292.779073,21.407869 Z M301.352113,58.1538462 L301.352113,51.835491 C310.649526,46.4838174 312.781918,33.4777443 305.661528,33.4777443 L301.352113,33.4777443 L301.352113,27.6923077 L306.721373,27.6923077 C321.40504,27.6923077 317.95325,51.9262985 301.352113,58.1538462 L301.352113,58.1538462 L301.352113,58.1538462 Z" id="icono" fill="#F8E81C"></path>
                <path d="M0,36.4801211 C0,40.7171246 0.898758332,52.0799978 16.113453,52.0799978 C29.787419,52.0799978 31.9059208,42.8998234 32.1627089,38.0208496 C32.2269059,37.0578943 31.6491327,36.351727 30.7503744,36.1591359 L23.4961107,34.5542103 C22.2121702,34.2332252 21.1850178,35.0677865 20.9924268,36.415924 C20.6072446,39.3689871 19.6442893,41.0381097 16.113453,41.0381097 C11.3628732,41.0381097 11.0418881,38.0208496 11.0418881,33.0776788 L11.0418881,23.8333074 C11.0418881,18.8901366 11.3628732,15.8728764 16.113453,15.8728764 C19.5800922,15.8728764 20.7356387,17.5419991 21.0566238,20.3666681 C21.2492148,21.7148056 22.2763672,22.6135639 23.6245047,22.3567758 L30.7503744,20.7518502 C31.6491327,20.5592592 32.2269059,19.8530919 32.1627089,18.9543336 C31.9059208,14.0111628 29.787419,4.83098836 16.113453,4.83098836 C0.898758332,4.83098836 0,16.1938616 0,20.4308651 L0,36.4801211 Z M45.5798868,5.98653479 C46.8638273,5.98653479 47.5057975,6.62850503 47.5057975,7.9124455 L47.5057975,48.9985407 C47.5057975,50.2182841 46.8638273,50.9244514 45.5798868,50.9244514 L38.5182142,50.9244514 C37.2984708,50.9244514 36.5923035,50.2182841 36.5923035,48.9985407 L36.5923035,7.9124455 C36.5923035,6.62850503 37.2984708,5.98653479 38.5182142,5.98653479 L45.5798868,5.98653479 Z M82.8141606,5.98653479 C84.0981011,5.98653479 84.7400713,6.62850503 84.7400713,7.9124455 L84.7400713,15.1025122 C84.7400713,16.3222556 84.0981011,17.0284229 82.8141606,17.0284229 L67.2784808,17.0284229 C66.0587374,17.0284229 65.3525701,17.6703931 65.3525701,18.9543336 L65.3525701,21.0086383 C65.3525701,22.2283818 66.0587374,22.934549 67.2784808,22.934549 L77.2290195,22.934549 C78.51296,22.934549 79.1549302,23.5765193 79.1549302,24.8604598 L79.1549302,32.0505264 C79.1549302,33.2702699 78.51296,33.9764371 77.2290195,33.9764371 L67.2784808,33.9764371 C66.0587374,33.9764371 65.3525701,34.6184074 65.3525701,35.9023478 L65.3525701,37.9566526 C65.3525701,39.176396 66.0587374,39.8825633 67.2784808,39.8825633 L82.8141606,39.8825633 C84.0981011,39.8825633 84.7400713,40.5245335 84.7400713,41.808474 L84.7400713,48.9985407 C84.7400713,50.2824811 84.0981011,50.9244514 82.8141606,50.9244514 L55.8514106,50.9244514 C54.6316672,50.9244514 53.9254999,50.2182841 53.9254999,48.9985407 L53.9254999,7.9124455 C53.9254999,6.62850503 54.6316672,5.98653479 55.8514106,5.98653479 L82.8141606,5.98653479 Z M89.0412719,36.4801211 C89.0412719,40.7171246 89.9400302,52.0799978 105.154725,52.0799978 C120.369419,52.0799978 121.268178,40.7171246 121.268178,36.4801211 L121.268178,27.8135228 C121.268178,26.5295824 120.626208,25.8876121 119.342267,25.8876121 L106.502862,25.8876121 C105.283119,25.8876121 104.576952,26.5295824 104.576952,27.8135228 L104.576952,32.9492847 C104.576952,34.1690282 105.283119,34.8751955 106.502862,34.8751955 L110.22629,34.8751955 C110.22629,38.0208496 109.905305,41.0381097 105.154725,41.0381097 C100.404145,41.0381097 100.08316,38.0208496 100.08316,33.0776788 L100.08316,23.8333074 C100.08316,18.8901366 100.404145,15.8728764 105.154725,15.8728764 C108.813955,15.8728764 109.905305,17.6703931 110.162093,20.7518502 C110.290487,22.0999877 110.996654,22.677761 112.280594,22.4209729 L119.534858,20.8160473 C120.690405,20.5592592 121.268178,19.8530919 121.203981,18.6975455 C120.882996,13.6901776 118.6361,4.83098836 105.154725,4.83098836 C89.9400302,4.83098836 89.0412719,16.1938616 89.0412719,20.4308651 L89.0412719,36.4801211 Z M158.502452,20.4308651 C158.502452,16.1938616 157.603693,4.83098836 142.388999,4.83098836 C127.174304,4.83098836 126.275546,16.1938616 126.275546,20.4308651 L126.275546,36.4801211 C126.275546,40.7171246 127.174304,52.0799978 142.388999,52.0799978 C157.603693,52.0799978 158.502452,40.7171246 158.502452,36.4801211 L158.502452,20.4308651 Z M147.460563,33.0776788 C147.460563,38.0208496 147.139578,41.0381097 142.388999,41.0381097 C137.638419,41.0381097 137.317434,38.0208496 137.317434,33.0776788 L137.317434,23.8333074 C137.317434,18.8901366 137.638419,15.8728764 142.388999,15.8728764 C147.139578,15.8728764 147.460563,18.8901366 147.460563,23.8333074 L147.460563,33.0776788 Z M172.754191,39.8825633 C174.038131,39.8825633 174.680102,40.5245335 174.680102,41.808474 L174.680102,48.9985407 C174.680102,50.2182841 174.038131,50.9244514 172.754191,50.9244514 L165.564124,50.9244514 C164.344381,50.9244514 163.638213,50.2182841 163.638213,48.9985407 L163.638213,41.808474 C163.638213,40.5245335 164.344381,39.8825633 165.564124,39.8825633 L172.754191,39.8825633 Z M208.383539,5.98653479 C209.667479,5.98653479 210.30945,6.62850503 210.30945,7.9124455 L210.30945,15.1025122 C210.30945,16.3222556 209.667479,17.0284229 208.383539,17.0284229 L192.847859,17.0284229 C191.628116,17.0284229 190.921949,17.6703931 190.921949,18.9543336 L190.921949,21.0086383 C190.921949,22.2283818 191.628116,22.934549 192.847859,22.934549 L202.798398,22.934549 C204.082338,22.934549 204.724309,23.5765193 204.724309,24.8604598 L204.724309,32.0505264 C204.724309,33.2702699 204.082338,33.9764371 202.798398,33.9764371 L192.847859,33.9764371 C191.628116,33.9764371 190.921949,34.6184074 190.921949,35.9023478 L190.921949,37.9566526 C190.921949,39.176396 191.628116,39.8825633 192.847859,39.8825633 L208.383539,39.8825633 C209.667479,39.8825633 210.30945,40.5245335 210.30945,41.808474 L210.30945,48.9985407 C210.30945,50.2824811 209.667479,50.9244514 208.383539,50.9244514 L181.420789,50.9244514 C180.201046,50.9244514 179.494878,50.2182841 179.494878,48.9985407 L179.494878,7.9124455 C179.494878,6.62850503 180.201046,5.98653479 181.420789,5.98653479 L208.383539,5.98653479 Z M243.691902,20.3024711 C244.847448,20.045683 245.425222,19.3395157 245.361025,18.1839693 C244.975842,13.5617836 241.894385,4.95938241 228.669798,4.95938241 C214.289665,4.95938241 213.134119,16.3222556 213.198316,18.2481663 C213.198316,33.0134818 232.52162,31.7937383 233.741363,37.2504853 C234.126545,38.983805 231.815453,40.8455187 228.669798,40.8455187 C225.652538,40.8455187 223.277248,39.048002 223.02046,35.9665449 C222.892066,34.6184074 222.185899,34.0406341 220.901959,34.2974222 L213.647695,35.9023478 C212.492148,36.1591359 211.914375,36.8653032 211.978572,38.0208496 C212.299557,43.0282175 215.188423,51.8874067 228.669798,51.8874067 C243.884493,51.8874067 246.067192,40.5245335 246.067192,38.5986228 C246.067192,23.8333074 225.780932,23.9617014 224.882174,18.9543336 C224.625386,17.477802 226.166115,16.0012705 228.669798,16.0012705 C231.687059,16.0012705 233.80556,17.6703931 234.25494,20.3024711 C234.447531,21.5864116 235.089501,22.1641848 236.373441,21.9073967 L243.691902,20.3024711 Z" id="Ciego.es" fill="#A92929"></path>
            </g>
        </g>
        <path d="M1.52,57.7 C1.14,57.719 0.95,57.909 0.95,58.289 L0.95,70.43 C0.95,70.791 1.159,71 1.52,71 L3.648,71 C4.028,71 4.218,70.81 4.218,70.43 L4.218,67.39 C4.218,67.01 4.427,66.82 4.788,66.82 L5.7,66.82 C9.082,66.82 10.45,65.376 10.45,62.26 C10.45,59.144 9.082,57.7 5.7,57.7 L1.52,57.7 Z M4.788,63.552 C4.427,63.552 4.218,63.343 4.218,62.982 L4.218,61.538 C4.218,61.158 4.427,60.968 4.788,60.968 L5.814,60.968 C6.726,60.968 7.182,61.082 7.182,62.26 C7.182,63.438 6.726,63.552 5.814,63.552 L4.788,63.552 Z M20.843,70.354 C20.843,70.772 20.653,71 20.273,71 L18.145,71 C17.784,71 17.575,70.81 17.575,70.43 L17.575,68.777 C17.575,68.397 17.385,68.207 17.005,68.207 L15.371,68.207 C15.01,68.207 14.801,68.397 14.801,68.777 L14.801,70.43 C14.801,70.81 14.611,71 14.231,71 L12.103,71 C11.742,71 11.533,70.772 11.533,70.354 L11.533,62.298 C11.533,59.904 11.913,57.358 16.188,57.358 C20.463,57.358 20.843,59.904 20.843,62.298 L20.843,70.354 Z M17.575,62.298 C17.575,61.386 17.442,60.93 16.188,60.93 C14.934,60.93 14.801,61.386 14.801,62.298 L14.801,64.369 C14.801,64.73 15.01,64.939 15.371,64.939 L17.005,64.939 C17.385,64.92 17.575,64.73 17.575,64.35 L17.575,62.298 Z M22.458,66.725 C22.458,67.979 22.724,71.342 27.227,71.342 C31.73,71.342 31.996,67.979 31.996,66.725 L31.996,64.16 C31.996,63.78 31.806,63.59 31.426,63.59 L27.626,63.59 C27.265,63.59 27.056,63.78 27.056,64.16 L27.056,65.68 C27.056,66.041 27.265,66.25 27.626,66.25 L28.728,66.25 C28.728,67.181 28.633,68.074 27.227,68.074 C25.821,68.074 25.726,67.181 25.726,65.718 L25.726,62.982 C25.726,61.519 25.821,60.626 27.227,60.626 C28.31,60.626 28.633,61.158 28.709,62.07 C28.747,62.469 28.956,62.64 29.336,62.564 L31.483,62.089 C31.825,62.013 31.996,61.804 31.977,61.462 C31.882,59.98 31.217,57.358 27.227,57.358 C22.724,57.358 22.458,60.721 22.458,61.975 L22.458,66.725 Z M42.883,70.354 C42.883,70.772 42.693,71 42.313,71 L40.185,71 C39.824,71 39.615,70.81 39.615,70.43 L39.615,68.777 C39.615,68.397 39.425,68.207 39.045,68.207 L37.411,68.207 C37.05,68.207 36.841,68.397 36.841,68.777 L36.841,70.43 C36.841,70.81 36.651,71 36.271,71 L34.143,71 C33.782,71 33.573,70.772 33.573,70.354 L33.573,62.298 C33.573,59.904 33.953,57.358 38.228,57.358 C42.503,57.358 42.883,59.904 42.883,62.298 L42.883,70.354 Z M39.615,62.298 C39.615,61.386 39.482,60.93 38.228,60.93 C36.974,60.93 36.841,61.386 36.841,62.298 L36.841,64.369 C36.841,64.73 37.05,64.939 37.411,64.939 L39.045,64.939 C39.425,64.92 39.615,64.73 39.615,64.35 L39.615,62.298 Z M52.687,66.231 C52.649,66.136 52.668,66.041 52.744,65.984 C53.751,65.262 54.188,64.027 54.188,62.26 C54.188,59.144 52.82,57.7 49.438,57.7 L45.277,57.7 C44.935,57.7 44.688,57.947 44.688,58.289 L44.688,70.411 C44.688,70.753 44.935,71 45.277,71 L47.405,71 C47.747,71 47.994,70.753 47.994,70.411 L47.994,67.409 C47.994,67.067 48.241,66.82 48.583,66.82 L49.343,66.82 C49.4,66.82 49.457,66.858 49.495,66.915 L51.471,70.734 C51.547,70.905 51.718,71 51.908,71 L54.074,71 C54.663,71 54.967,70.468 54.701,69.974 L52.687,66.231 Z M49.552,60.968 C50.464,60.968 50.92,61.082 50.92,62.26 C50.92,63.438 50.464,63.552 49.552,63.552 L48.583,63.552 C48.241,63.552 47.994,63.305 47.994,62.963 L47.994,61.557 C47.994,61.215 48.241,60.968 48.583,60.968 L49.552,60.968 Z M62.225,57.7 C61.845,57.719 61.655,57.909 61.655,58.289 L61.655,70.43 C61.655,70.791 61.864,71 62.225,71 L64.353,71 C64.733,71 64.923,70.81 64.923,70.43 L64.923,67.39 C64.923,67.01 65.132,66.82 65.493,66.82 L66.405,66.82 C69.787,66.82 71.155,65.376 71.155,62.26 C71.155,59.144 69.787,57.7 66.405,57.7 L62.225,57.7 Z M65.493,63.552 C65.132,63.552 64.923,63.343 64.923,62.982 L64.923,61.538 C64.923,61.158 65.132,60.968 65.493,60.968 L66.519,60.968 C67.431,60.968 67.887,61.082 67.887,62.26 C67.887,63.438 67.431,63.552 66.519,63.552 L65.493,63.552 Z M81.681,61.975 C81.681,60.721 81.415,57.358 76.912,57.358 C72.409,57.358 72.143,60.721 72.143,61.975 L72.143,66.725 C72.143,67.979 72.409,71.342 76.912,71.342 C81.415,71.342 81.681,67.979 81.681,66.725 L81.681,61.975 Z M78.413,65.718 C78.413,67.181 78.318,68.074 76.912,68.074 C75.506,68.074 75.411,67.181 75.411,65.718 L75.411,62.982 C75.411,61.519 75.506,60.626 76.912,60.626 C78.318,60.626 78.413,61.519 78.413,62.982 L78.413,65.718 Z M83.201,66.725 C83.201,67.979 83.467,71.342 87.97,71.342 C92.017,71.342 92.644,68.625 92.72,67.181 C92.739,66.896 92.568,66.687 92.302,66.63 L90.155,66.155 C89.775,66.06 89.471,66.307 89.414,66.706 C89.3,67.58 89.015,68.074 87.97,68.074 C86.564,68.074 86.469,67.181 86.469,65.718 L86.469,62.982 C86.469,61.519 86.564,60.626 87.97,60.626 C88.996,60.626 89.338,61.12 89.433,61.956 C89.49,62.355 89.794,62.621 90.193,62.545 L92.302,62.07 C92.568,62.013 92.739,61.804 92.72,61.538 C92.644,60.075 92.017,57.358 87.97,57.358 C83.467,57.358 83.201,60.721 83.201,61.975 L83.201,66.725 Z M103.379,61.975 C103.379,60.721 103.113,57.358 98.61,57.358 C94.107,57.358 93.841,60.721 93.841,61.975 L93.841,66.725 C93.841,67.979 94.107,71.342 98.61,71.342 C103.113,71.342 103.379,67.979 103.379,66.725 L103.379,61.975 Z M100.111,65.718 C100.111,67.181 100.016,68.074 98.61,68.074 C97.204,68.074 97.109,67.181 97.109,65.718 L97.109,62.982 C97.109,61.519 97.204,60.626 98.61,60.626 C100.016,60.626 100.111,61.519 100.111,62.982 L100.111,65.718 Z M113.373,57.7 C113.696,57.7 113.905,57.833 114.019,58.137 L115.425,61.671 C115.501,61.842 115.615,61.842 115.691,61.671 L117.097,58.137 C117.211,57.833 117.42,57.7 117.743,57.7 L120.46,57.7 C120.897,57.7 121.087,57.966 120.897,58.365 L117.496,65.965 C117.458,66.041 117.458,66.117 117.458,66.193 L117.458,70.43 C117.458,70.791 117.268,71 116.888,71 L114.228,71 C113.867,71 113.658,70.791 113.658,70.43 L113.658,66.193 C113.658,66.117 113.658,66.041 113.62,65.965 L110.2,58.365 C110.01,57.966 110.2,57.7 110.637,57.7 L113.373,57.7 Z M128.478,57.7 C128.098,57.719 127.908,57.909 127.908,58.289 L127.908,70.43 C127.908,70.791 128.117,71 128.478,71 L133.171,71 C136.743,71 137.788,69.86 137.788,67.504 C137.788,66.326 137.218,65.376 136.439,65.015 C137.218,64.16 137.408,62.906 137.408,62.26 C137.408,59.144 136.04,57.7 132.468,57.7 L128.478,57.7 Z M131.746,63.552 C131.385,63.552 131.176,63.362 131.176,62.982 L131.176,61.538 C131.176,61.158 131.385,60.968 131.746,60.968 L132.772,60.968 C133.684,60.968 134.14,61.082 134.14,62.26 C134.14,63.438 133.684,63.552 132.772,63.552 L131.746,63.552 Z M131.727,68.302 C131.366,68.302 131.157,68.112 131.157,67.732 L131.157,66.858 C131.157,66.478 131.366,66.288 131.727,66.288 L132.962,66.288 C133.874,66.288 134.292,66.421 134.292,67.314 C134.292,68.207 133.836,68.302 132.924,68.302 L131.727,68.302 Z M147.592,57.7 C147.972,57.7 148.162,57.89 148.162,58.27 L148.162,60.398 C148.162,60.759 147.972,60.968 147.592,60.968 L142.994,60.968 C142.633,60.968 142.424,61.158 142.424,61.538 L142.424,62.146 C142.424,62.507 142.633,62.716 142.994,62.716 L145.939,62.716 C146.319,62.716 146.509,62.906 146.509,63.286 L146.509,65.414 C146.509,65.775 146.319,65.984 145.939,65.984 L142.994,65.984 C142.633,65.984 142.424,66.174 142.424,66.554 L142.424,67.162 C142.424,67.523 142.633,67.732 142.994,67.732 L147.592,67.732 C147.972,67.732 148.162,67.922 148.162,68.302 L148.162,70.43 C148.162,70.81 147.972,71 147.592,71 L139.612,71 C139.251,71 139.042,70.791 139.042,70.43 L139.042,58.27 C139.042,57.89 139.251,57.7 139.612,57.7 L147.592,57.7 Z M150.195,57.7 C149.815,57.719 149.625,57.909 149.625,58.289 L149.625,70.43 C149.625,70.791 149.834,71 150.195,71 L154.888,71 C158.46,71 159.505,69.86 159.505,67.504 C159.505,66.326 158.935,65.376 158.156,65.015 C158.935,64.16 159.125,62.906 159.125,62.26 C159.125,59.144 157.757,57.7 154.185,57.7 L150.195,57.7 Z M153.463,63.552 C153.102,63.552 152.893,63.362 152.893,62.982 L152.893,61.538 C152.893,61.158 153.102,60.968 153.463,60.968 L154.489,60.968 C155.401,60.968 155.857,61.082 155.857,62.26 C155.857,63.438 155.401,63.552 154.489,63.552 L153.463,63.552 Z M153.444,68.302 C153.083,68.302 152.874,68.112 152.874,67.732 L152.874,66.858 C152.874,66.478 153.083,66.288 153.444,66.288 L154.679,66.288 C155.591,66.288 156.009,66.421 156.009,67.314 C156.009,68.207 155.553,68.302 154.641,68.302 L153.444,68.302 Z M169.309,57.7 C169.689,57.7 169.879,57.89 169.879,58.27 L169.879,60.398 C169.879,60.759 169.689,60.968 169.309,60.968 L164.711,60.968 C164.35,60.968 164.141,61.158 164.141,61.538 L164.141,62.146 C164.141,62.507 164.35,62.716 164.711,62.716 L167.656,62.716 C168.036,62.716 168.226,62.906 168.226,63.286 L168.226,65.414 C168.226,65.775 168.036,65.984 167.656,65.984 L164.711,65.984 C164.35,65.984 164.141,66.174 164.141,66.554 L164.141,67.162 C164.141,67.523 164.35,67.732 164.711,67.732 L169.309,67.732 C169.689,67.732 169.879,67.922 169.879,68.302 L169.879,70.43 C169.879,70.81 169.689,71 169.309,71 L161.329,71 C160.968,71 160.759,70.791 160.759,70.43 L160.759,58.27 C160.759,57.89 160.968,57.7 161.329,57.7 L169.309,57.7 Z M179.341,66.231 C179.303,66.136 179.322,66.041 179.398,65.984 C180.405,65.262 180.842,64.027 180.842,62.26 C180.842,59.144 179.474,57.7 176.092,57.7 L171.931,57.7 C171.589,57.7 171.342,57.947 171.342,58.289 L171.342,70.411 C171.342,70.753 171.589,71 171.931,71 L174.059,71 C174.401,71 174.648,70.753 174.648,70.411 L174.648,67.409 C174.648,67.067 174.895,66.82 175.237,66.82 L175.997,66.82 C176.054,66.82 176.111,66.858 176.149,66.915 L178.125,70.734 C178.201,70.905 178.372,71 178.562,71 L180.728,71 C181.317,71 181.621,70.468 181.355,69.974 L179.341,66.231 Z M176.206,60.968 C177.118,60.968 177.574,61.082 177.574,62.26 C177.574,63.438 177.118,63.552 176.206,63.552 L175.237,63.552 C174.895,63.552 174.648,63.305 174.648,62.963 L174.648,61.557 C174.648,61.215 174.895,60.968 175.237,60.968 L176.206,60.968 Z M192.812,57.7 C193.154,57.7 193.344,57.89 193.42,58.213 L194.769,63.742 C194.807,63.932 194.959,63.932 194.997,63.742 L196.346,58.213 C196.422,57.89 196.612,57.7 196.954,57.7 L200.887,57.7 C201.267,57.7 201.457,57.89 201.457,58.27 L201.457,70.43 C201.457,70.791 201.267,71 200.887,71 L198.759,71 C198.398,71 198.189,70.791 198.189,70.43 L198.189,62.944 C198.189,62.811 198.018,62.792 197.98,62.925 L196.137,70.506 C196.061,70.829 195.852,71 195.51,71 L194.256,71 C193.914,71 193.705,70.829 193.629,70.506 L191.786,62.925 C191.748,62.792 191.577,62.811 191.577,62.944 L191.577,70.43 C191.577,70.791 191.387,71 191.007,71 L188.879,71 C188.499,71 188.309,70.791 188.309,70.43 L188.309,58.27 C188.309,57.89 188.499,57.7 188.879,57.7 L192.812,57.7 Z M203.813,57.7 C203.452,57.7 203.243,57.89 203.243,58.27 L203.243,66.725 C203.243,67.979 203.509,71.342 208.012,71.342 C212.515,71.342 212.781,67.979 212.781,66.725 L212.781,58.27 C212.781,57.89 212.591,57.7 212.211,57.7 L210.083,57.7 C209.722,57.7 209.513,57.89 209.513,58.27 L209.513,65.718 C209.513,67.181 209.418,68.074 208.012,68.074 C206.606,68.074 206.511,67.181 206.511,65.718 L206.511,58.27 C206.511,57.89 206.321,57.7 205.941,57.7 L203.813,57.7 Z M214.377,66.725 C214.377,67.979 214.643,71.342 219.146,71.342 C223.193,71.342 223.82,68.625 223.896,67.181 C223.915,66.896 223.744,66.687 223.478,66.63 L221.331,66.155 C220.951,66.06 220.647,66.307 220.59,66.706 C220.476,67.58 220.191,68.074 219.146,68.074 C217.74,68.074 217.645,67.181 217.645,65.718 L217.645,62.982 C217.645,61.519 217.74,60.626 219.146,60.626 C220.172,60.626 220.514,61.12 220.609,61.956 C220.666,62.355 220.97,62.621 221.369,62.545 L223.478,62.07 C223.744,62.013 223.915,61.804 223.896,61.538 C223.82,60.075 223.193,57.358 219.146,57.358 C214.643,57.358 214.377,60.721 214.377,61.975 L214.377,66.725 Z M227.905,57.7 C228.266,57.7 228.475,57.909 228.475,58.27 L228.475,63.02 C228.475,63.381 228.684,63.59 229.045,63.59 L230.869,63.59 C231.249,63.59 231.439,63.381 231.439,63.02 L231.439,58.27 C231.439,57.909 231.648,57.7 232.009,57.7 L234.137,57.7 C234.517,57.7 234.707,57.89 234.707,58.27 L234.707,70.43 C234.707,70.791 234.517,71 234.137,71 L232.009,71 C231.648,71 231.439,70.791 231.439,70.43 L231.439,67.428 C231.439,67.048 231.249,66.858 230.869,66.858 L229.045,66.858 C228.684,66.858 228.475,67.048 228.475,67.428 L228.475,70.43 C228.475,70.791 228.285,71 227.905,71 L225.777,71 C225.416,71 225.207,70.791 225.207,70.43 L225.207,58.27 C225.207,57.89 225.397,57.7 225.777,57.7 L227.905,57.7 Z M245.955,61.975 C245.955,60.721 245.689,57.358 241.186,57.358 C236.683,57.358 236.417,60.721 236.417,61.975 L236.417,66.725 C236.417,67.979 236.683,71.342 241.186,71.342 C245.689,71.342 245.955,67.979 245.955,66.725 L245.955,61.975 Z M242.687,65.718 C242.687,67.181 242.592,68.074 241.186,68.074 C239.78,68.074 239.685,67.181 239.685,65.718 L239.685,62.982 C239.685,61.519 239.78,60.626 241.186,60.626 C242.592,60.626 242.687,61.519 242.687,62.982 L242.687,65.718 Z" id="pagar-poco-y-beber-m" fill="#F2F2F2" sketch:type="MSShapeGroup"></path>
    </g>
</svg>