<?xml version="1.0" encoding="UTF-8" standalone="no"?>
<svg width="295px" height="65px" viewBox="0 0 295 65" version="1.1" xmlns="http://www.w3.org/2000/svg" xmlns:xlink="http://www.w3.org/1999/xlink" xmlns:sketch="http://www.bohemiancoding.com/sketch/ns">
    <!-- Generator: Sketch 3.0.2 (7799) - http://www.bohemiancoding.com/sketch -->
    <title>ciego</title>
    <description>Created with Sketch.</description>
    <defs></defs>
    <g id="Page-1" stroke="none" stroke-width="1" fill="none" fill-rule="evenodd" sketch:type="MSPage">
        <g id="logo" sketch:type="MSLayerGroup">
            <g id="Page-1" sketch:type="MSShapeGroup">
                <path d="M279.345028,56.5979029 L279.345028,22.5393398 C282.339193,20.9551845 284.380282,17.8403106 284.380282,14.263301 C284.380282,9.26633009 280.3971,5.16846602 275.395423,4.89071845 C273.319969,2.03930097 269.832715,0 265.725158,0 C263.097027,0 260.460542,0.857941744 258.292239,2.57056311 C257.247262,2.23502913 256.14711,2.06027184 255.0282,2.06027184 C252.387459,2.06027184 249.915073,3.01685437 248.021376,4.68194174 C247.529862,4.60551456 247.030467,4.56652427 246.5265,4.56652427 C241.273707,4.56652427 237,8.77778642 237,13.9541748 C237,17.6770485 239.210707,20.9006602 242.406332,22.4173981 L242.406332,56.5979029 C242.406332,58.3686214 240.949605,59.8044272 239.152065,59.8044272 L239.152065,64 L282.599294,64 L282.599294,59.8042718 C280.802071,59.8042718 279.345028,58.3686214 279.345028,56.5979029 L279.345028,56.5979029 L279.345028,56.5979029 Z M254.971831,57.4358974 L250.070423,57.4358974 L250.070423,22.1538462 C250.396835,22.3444549 252.455583,23.0887139 254.971831,22.9074302 L254.971831,57.4358974 L254.971831,57.4358974 Z M274.279788,19.0292169 C272.604298,19.0292169 271.115129,18.255035 270.164359,17.0539124 C270.164204,17.0539124 268.957788,17.8791993 268.957632,17.8793515 C264.889251,20.9546332 268.65525,26.5030381 268.934887,29.1702393 C269.202374,31.7201724 267.581876,33.6410256 265.032107,33.6410256 C262.546524,33.6410256 261.088512,31.5893675 261.285583,29.1702393 C261.493715,26.6174163 265.461457,21.5516202 261.062184,17.5827592 C260.410526,16.9950502 260.079167,16.7363305 259.399,16.0993415 C258.262222,17.3982636 256.573021,18.2224859 254.686127,18.2224859 C253.069524,18.2224859 251.597959,17.6175897 250.494363,16.6278841 C249.549358,17.8992764 248.016256,18.726997 246.284214,18.726997 C243.41259,18.726997 241.084507,16.4541876 241.084507,13.6504019 C241.084507,10.8466162 243.41259,8.57380677 246.284214,8.57380677 C247.349331,8.57380677 248.339515,8.88743409 249.164096,9.42388587 C250.189643,7.46333486 252.276568,6.11969579 254.686127,6.11969579 C256.26799,6.11969579 257.710579,6.69919147 258.805763,7.65148084 C260.127928,5.52392556 262.522376,4.1025641 265.257531,4.1025641 C268.614745,4.1025641 271.458484,6.24517714 272.435424,9.20608066 C273.008722,8.99375106 273.629844,8.87648295 274.279477,8.87648295 C277.151257,8.87648295 279.478873,11.1491403 279.478873,13.952926 C279.479184,16.7564075 277.151569,19.0292169 274.279788,19.0292169 L274.279788,19.0292169 L274.279788,19.0292169 Z M281.929577,51.6923077 L281.929577,46.075992 C290.225731,41.3189488 292.12848,29.7579949 285.774902,29.7579949 L281.929577,29.7579949 L281.929577,24.6153846 L286.720609,24.6153846 C299.822959,24.6153846 296.7429,46.1567097 281.929577,51.6923077 L281.929577,51.6923077 L281.929577,51.6923077 Z" id="icono" fill="#F8E81C"></path>
                <path d="M0.179995136,30.5000274 C0.179995136,34.4600193 1.01999343,45.0799978 15.2399646,45.0799978 C28.0199387,45.0799978 29.9999347,36.5000152 30.2399342,31.9400244 C30.2999341,31.0400263 29.7599352,30.3800276 28.9199369,30.200028 L22.1399506,28.700031 C20.9399531,28.4000316 19.979955,29.18003 19.7999554,30.4400275 C19.4399561,33.2000219 18.5399579,34.7600187 15.2399646,34.7600187 C10.7999736,34.7600187 10.4999742,31.9400244 10.4999742,27.3200338 L10.4999742,18.6800513 C10.4999742,14.0600607 10.7999736,11.2400664 15.2399646,11.2400664 C18.4799581,11.2400664 19.5599559,12.8000632 19.8599553,15.4400579 C20.0399549,16.7000553 20.9999529,17.5400536 22.2599504,17.3000541 L28.9199369,15.8000571 C29.7599352,15.6200575 30.2999341,14.9600589 30.2399342,14.1200606 C29.9999347,9.50006992 28.0199387,0.920087304 15.2399646,0.920087304 C1.01999343,0.920087304 0.179995136,11.5400658 0.179995136,15.5000578 L0.179995136,30.5000274 Z M42.7799088,2.00008512 C43.9799064,2.00008512 44.5799052,2.6000839 44.5799052,3.80008147 L44.5799052,42.2000036 C44.5799052,43.3400013 43.9799064,44 42.7799088,44 L36.1799222,44 C35.0399245,44 34.3799258,43.3400013 34.3799258,42.2000036 L34.3799258,3.80008147 C34.3799258,2.6000839 35.0399245,2.00008512 36.1799222,2.00008512 L42.7799088,2.00008512 Z M77.5798383,2.00008512 C78.7798358,2.00008512 79.3798346,2.6000839 79.3798346,3.80008147 L79.3798346,10.5200678 C79.3798346,11.6600655 78.7798358,12.3200642 77.5798383,12.3200642 L63.0598677,12.3200642 C61.91987,12.3200642 61.2598714,12.920063 61.2598714,14.1200606 L61.2598714,16.0400567 C61.2598714,17.1800544 61.91987,17.840053 63.0598677,17.840053 L72.3598489,17.840053 C73.5598464,17.840053 74.1598452,18.4400518 74.1598452,19.6400494 L74.1598452,26.3600357 C74.1598452,27.5000334 73.5598464,28.1600321 72.3598489,28.1600321 L63.0598677,28.1600321 C61.91987,28.1600321 61.2598714,28.7600309 61.2598714,29.9600285 L61.2598714,31.8800246 C61.2598714,33.0200223 61.91987,33.6800209 63.0598677,33.6800209 L77.5798383,33.6800209 C78.7798358,33.6800209 79.3798346,34.2800197 79.3798346,35.4800173 L79.3798346,42.2000036 C79.3798346,43.4000012 78.7798358,44 77.5798383,44 L52.3798894,44 C51.2398917,44 50.579893,43.3400013 50.579893,42.2000036 L50.579893,3.80008147 C50.579893,2.6000839 51.2398917,2.00008512 52.3798894,2.00008512 L77.5798383,2.00008512 Z M83.3998265,30.5000274 C83.3998265,34.4600193 84.2398248,45.0799978 98.459796,45.0799978 C112.679767,45.0799978 113.519765,34.4600193 113.519765,30.5000274 L113.519765,22.4000438 C113.519765,21.2000462 112.919767,20.6000474 111.719769,20.6000474 L99.7197934,20.6000474 C98.5797957,20.6000474 97.9197971,21.2000462 97.9197971,22.4000438 L97.9197971,27.200034 C97.9197971,28.3400317 98.5797957,29.0000304 99.7197934,29.0000304 L103.199786,29.0000304 C103.199786,31.9400244 102.899787,34.7600187 98.459796,34.7600187 C94.019805,34.7600187 93.7198056,31.9400244 93.7198056,27.3200338 L93.7198056,18.6800513 C93.7198056,14.0600607 94.019805,11.2400664 98.459796,11.2400664 C101.879789,11.2400664 102.899787,12.920063 103.139786,15.8000571 C103.259786,17.0600546 103.919785,17.6000535 105.119782,17.360054 L111.899769,15.860057 C112.979767,15.6200575 113.519765,14.9600589 113.459766,13.880061 C113.159766,9.20007052 111.05977,0.920087304 98.459796,0.920087304 C84.2398248,0.920087304 83.3998265,11.5400658 83.3998265,15.5000578 L83.3998265,30.5000274 Z M148.319695,15.5000578 C148.319695,11.5400658 147.479697,0.920087304 133.259725,0.920087304 C119.039754,0.920087304 118.199756,11.5400658 118.199756,15.5000578 L118.199756,30.5000274 C118.199756,34.4600193 119.039754,45.0799978 133.259725,45.0799978 C147.479697,45.0799978 148.319695,34.4600193 148.319695,30.5000274 L148.319695,15.5000578 Z M137.999716,27.3200338 C137.999716,31.9400244 137.699716,34.7600187 133.259725,34.7600187 C128.819734,34.7600187 128.519735,31.9400244 128.519735,27.3200338 L128.519735,18.6800513 C128.519735,14.0600607 128.819734,11.2400664 133.259725,11.2400664 C137.699716,11.2400664 137.999716,14.0600607 137.999716,18.6800513 L137.999716,27.3200338 Z M161.639668,33.6800209 C162.839665,33.6800209 163.439664,34.2800197 163.439664,35.4800173 L163.439664,42.2000036 C163.439664,43.3400013 162.839665,44 161.639668,44 L154.919682,44 C153.779684,44 153.119685,43.3400013 153.119685,42.2000036 L153.119685,35.4800173 C153.119685,34.2800197 153.779684,33.6800209 154.919682,33.6800209 L161.639668,33.6800209 Z M194.9396,2.00008512 C196.139598,2.00008512 196.739597,2.6000839 196.739597,3.80008147 L196.739597,10.5200678 C196.739597,11.6600655 196.139598,12.3200642 194.9396,12.3200642 L180.41963,12.3200642 C179.279632,12.3200642 178.619634,12.920063 178.619634,14.1200606 L178.619634,16.0400567 C178.619634,17.1800544 179.279632,17.840053 180.41963,17.840053 L189.719611,17.840053 C190.919609,17.840053 191.519607,18.4400518 191.519607,19.6400494 L191.519607,26.3600357 C191.519607,27.5000334 190.919609,28.1600321 189.719611,28.1600321 L180.41963,28.1600321 C179.279632,28.1600321 178.619634,28.7600309 178.619634,29.9600285 L178.619634,31.8800246 C178.619634,33.0200223 179.279632,33.6800209 180.41963,33.6800209 L194.9396,33.6800209 C196.139598,33.6800209 196.739597,34.2800197 196.739597,35.4800173 L196.739597,42.2000036 C196.739597,43.4000012 196.139598,44 194.9396,44 L169.739652,44 C168.599654,44 167.939655,43.3400013 167.939655,42.2000036 L167.939655,3.80008147 C167.939655,2.6000839 168.599654,2.00008512 169.739652,2.00008512 L194.9396,2.00008512 Z M227.939534,15.380058 C229.019531,15.1400585 229.55953,14.4800598 229.49953,13.400062 C229.139531,9.08007077 226.259537,1.04008706 213.899562,1.04008706 C200.459589,1.04008706 199.379591,11.6600655 199.439591,13.4600619 C199.439591,27.2600339 217.499555,26.1200362 218.639552,31.2200259 C218.999552,32.8400226 216.839556,34.5800191 213.899562,34.5800191 C211.079568,34.5800191 208.859572,32.9000225 208.619573,30.0200283 C208.499573,28.7600309 207.839574,28.220032 206.639577,28.4600315 L199.85959,29.9600285 C198.779593,30.200028 198.239594,30.8600266 198.299594,31.9400244 C198.599593,36.620015 201.299588,44.8999982 213.899562,44.8999982 C228.119533,44.8999982 230.159529,34.2800197 230.159529,32.4800233 C230.159529,18.6800513 211.199567,18.8000511 210.359569,14.1200606 C210.11957,12.7400634 211.559567,11.3600661 213.899562,11.3600661 C216.719556,11.3600661 218.699552,12.920063 219.119551,15.380058 C219.299551,16.5800556 219.89955,17.1200545 221.099547,16.880055 L227.939534,15.380058 Z" id="Ciego.es" fill="#A92929"></path>
                <path d="M2.3,50.8999923 C1.92,50.9189923 1.73,51.1089923 1.73,51.4889923 L1.73,63.6299923 C1.73,63.9909923 1.939,64.1999923 2.3,64.1999923 L6.993,64.1999923 C10.565,64.1999923 11.61,63.0599923 11.61,60.7039923 C11.61,59.5259923 11.04,58.5759923 10.261,58.2149923 C11.04,57.3599923 11.23,56.1059923 11.23,55.4599923 C11.23,52.3439923 9.862,50.8999923 6.29,50.8999923 L2.3,50.8999923 Z M5.568,56.7519923 C5.207,56.7519923 4.998,56.5619923 4.998,56.1819923 L4.998,54.7379923 C4.998,54.3579923 5.207,54.1679923 5.568,54.1679923 L6.594,54.1679923 C7.506,54.1679923 7.962,54.2819923 7.962,55.4599923 C7.962,56.6379923 7.506,56.7519923 6.594,56.7519923 L5.568,56.7519923 Z M5.549,61.5019923 C5.188,61.5019923 4.979,61.3119923 4.979,60.9319923 L4.979,60.0579923 C4.979,59.6779923 5.188,59.4879923 5.549,59.4879923 L6.784,59.4879923 C7.696,59.4879923 8.114,59.6209923 8.114,60.5139923 C8.114,61.4069923 7.658,61.5019923 6.746,61.5019923 L5.549,61.5019923 Z M21.414,50.8999923 C21.794,50.8999923 21.984,51.0899923 21.984,51.4699923 L21.984,53.5979923 C21.984,53.9589923 21.794,54.1679923 21.414,54.1679923 L16.816,54.1679923 C16.455,54.1679923 16.246,54.3579923 16.246,54.7379923 L16.246,55.3459923 C16.246,55.7069923 16.455,55.9159923 16.816,55.9159923 L19.761,55.9159923 C20.141,55.9159923 20.331,56.1059923 20.331,56.4859923 L20.331,58.6139923 C20.331,58.9749923 20.141,59.1839923 19.761,59.1839923 L16.816,59.1839923 C16.455,59.1839923 16.246,59.3739923 16.246,59.7539923 L16.246,60.3619923 C16.246,60.7229923 16.455,60.9319923 16.816,60.9319923 L21.414,60.9319923 C21.794,60.9319923 21.984,61.1219923 21.984,61.5019923 L21.984,63.6299923 C21.984,64.0099923 21.794,64.1999923 21.414,64.1999923 L13.434,64.1999923 C13.073,64.1999923 12.864,63.9909923 12.864,63.6299923 L12.864,51.4699923 C12.864,51.0899923 13.073,50.8999923 13.434,50.8999923 L21.414,50.8999923 Z M24.017,50.8999923 C23.637,50.9189923 23.447,51.1089923 23.447,51.4889923 L23.447,63.6299923 C23.447,63.9909923 23.656,64.1999923 24.017,64.1999923 L28.71,64.1999923 C32.282,64.1999923 33.327,63.0599923 33.327,60.7039923 C33.327,59.5259923 32.757,58.5759923 31.978,58.2149923 C32.757,57.3599923 32.947,56.1059923 32.947,55.4599923 C32.947,52.3439923 31.579,50.8999923 28.007,50.8999923 L24.017,50.8999923 Z M27.285,56.7519923 C26.924,56.7519923 26.715,56.5619923 26.715,56.1819923 L26.715,54.7379923 C26.715,54.3579923 26.924,54.1679923 27.285,54.1679923 L28.311,54.1679923 C29.223,54.1679923 29.679,54.2819923 29.679,55.4599923 C29.679,56.6379923 29.223,56.7519923 28.311,56.7519923 L27.285,56.7519923 Z M27.266,61.5019923 C26.905,61.5019923 26.696,61.3119923 26.696,60.9319923 L26.696,60.0579923 C26.696,59.6779923 26.905,59.4879923 27.266,59.4879923 L28.501,59.4879923 C29.413,59.4879923 29.831,59.6209923 29.831,60.5139923 C29.831,61.4069923 29.375,61.5019923 28.463,61.5019923 L27.266,61.5019923 Z M43.131,50.8999923 C43.511,50.8999923 43.701,51.0899923 43.701,51.4699923 L43.701,53.5979923 C43.701,53.9589923 43.511,54.1679923 43.131,54.1679923 L38.533,54.1679923 C38.172,54.1679923 37.963,54.3579923 37.963,54.7379923 L37.963,55.3459923 C37.963,55.7069923 38.172,55.9159923 38.533,55.9159923 L41.478,55.9159923 C41.858,55.9159923 42.048,56.1059923 42.048,56.4859923 L42.048,58.6139923 C42.048,58.9749923 41.858,59.1839923 41.478,59.1839923 L38.533,59.1839923 C38.172,59.1839923 37.963,59.3739923 37.963,59.7539923 L37.963,60.3619923 C37.963,60.7229923 38.172,60.9319923 38.533,60.9319923 L43.131,60.9319923 C43.511,60.9319923 43.701,61.1219923 43.701,61.5019923 L43.701,63.6299923 C43.701,64.0099923 43.511,64.1999923 43.131,64.1999923 L35.151,64.1999923 C34.79,64.1999923 34.581,63.9909923 34.581,63.6299923 L34.581,51.4699923 C34.581,51.0899923 34.79,50.8999923 35.151,50.8999923 L43.131,50.8999923 Z M53.163,59.4309923 C53.125,59.3359923 53.144,59.2409923 53.22,59.1839923 C54.227,58.4619923 54.664,57.2269923 54.664,55.4599923 C54.664,52.3439923 53.296,50.8999923 49.914,50.8999923 L45.753,50.8999923 C45.411,50.8999923 45.164,51.1469923 45.164,51.4889923 L45.164,63.6109923 C45.164,63.9529923 45.411,64.1999923 45.753,64.1999923 L47.881,64.1999923 C48.223,64.1999923 48.47,63.9529923 48.47,63.6109923 L48.47,60.6089923 C48.47,60.2669923 48.717,60.0199923 49.059,60.0199923 L49.819,60.0199923 C49.876,60.0199923 49.933,60.0579923 49.971,60.1149923 L51.947,63.9339923 C52.023,64.1049923 52.194,64.1999923 52.384,64.1999923 L54.55,64.1999923 C55.139,64.1999923 55.443,63.6679923 55.177,63.1739923 L53.163,59.4309923 Z M50.028,54.1679923 C50.94,54.1679923 51.396,54.2819923 51.396,55.4599923 C51.396,56.6379923 50.94,56.7519923 50.028,56.7519923 L49.059,56.7519923 C48.717,56.7519923 48.47,56.5049923 48.47,56.1629923 L48.47,54.7569923 C48.47,54.4149923 48.717,54.1679923 49.059,54.1679923 L50.028,54.1679923 Z M62.701,50.8999923 C62.321,50.9189923 62.131,51.1089923 62.131,51.4889923 L62.131,63.6299923 C62.131,63.9909923 62.34,64.1999923 62.701,64.1999923 L67.394,64.1999923 C70.966,64.1999923 72.011,63.0599923 72.011,60.7039923 C72.011,59.5259923 71.441,58.5759923 70.662,58.2149923 C71.441,57.3599923 71.631,56.1059923 71.631,55.4599923 C71.631,52.3439923 70.263,50.8999923 66.691,50.8999923 L62.701,50.8999923 Z M65.969,56.7519923 C65.608,56.7519923 65.399,56.5619923 65.399,56.1819923 L65.399,54.7379923 C65.399,54.3579923 65.608,54.1679923 65.969,54.1679923 L66.995,54.1679923 C67.907,54.1679923 68.363,54.2819923 68.363,55.4599923 C68.363,56.6379923 67.907,56.7519923 66.995,56.7519923 L65.969,56.7519923 Z M65.95,61.5019923 C65.589,61.5019923 65.38,61.3119923 65.38,60.9319923 L65.38,60.0579923 C65.38,59.6779923 65.589,59.4879923 65.95,59.4879923 L67.185,59.4879923 C68.097,59.4879923 68.515,59.6209923 68.515,60.5139923 C68.515,61.4069923 68.059,61.5019923 67.147,61.5019923 L65.95,61.5019923 Z M82.48,63.5539923 C82.48,63.9719923 82.29,64.1999923 81.91,64.1999923 L79.782,64.1999923 C79.421,64.1999923 79.212,64.0099923 79.212,63.6299923 L79.212,61.9769923 C79.212,61.5969923 79.022,61.4069923 78.642,61.4069923 L77.008,61.4069923 C76.647,61.4069923 76.438,61.5969923 76.438,61.9769923 L76.438,63.6299923 C76.438,64.0099923 76.248,64.1999923 75.868,64.1999923 L73.74,64.1999923 C73.379,64.1999923 73.17,63.9719923 73.17,63.5539923 L73.17,55.4979923 C73.17,53.1039923 73.55,50.5579923 77.825,50.5579923 C82.1,50.5579923 82.48,53.1039923 82.48,55.4979923 L82.48,63.5539923 Z M79.212,55.4979923 C79.212,54.5859923 79.079,54.1299923 77.825,54.1299923 C76.571,54.1299923 76.438,54.5859923 76.438,55.4979923 L76.438,57.5689923 C76.438,57.9299923 76.647,58.1389923 77.008,58.1389923 L78.642,58.1389923 C79.022,58.1199923 79.212,57.9299923 79.212,57.5499923 L79.212,55.4979923 Z M92.284,59.4309923 C92.246,59.3359923 92.265,59.2409923 92.341,59.1839923 C93.348,58.4619923 93.785,57.2269923 93.785,55.4599923 C93.785,52.3439923 92.417,50.8999923 89.035,50.8999923 L84.874,50.8999923 C84.532,50.8999923 84.285,51.1469923 84.285,51.4889923 L84.285,63.6109923 C84.285,63.9529923 84.532,64.1999923 84.874,64.1999923 L87.002,64.1999923 C87.344,64.1999923 87.591,63.9529923 87.591,63.6109923 L87.591,60.6089923 C87.591,60.2669923 87.838,60.0199923 88.18,60.0199923 L88.94,60.0199923 C88.997,60.0199923 89.054,60.0579923 89.092,60.1149923 L91.068,63.9339923 C91.144,64.1049923 91.315,64.1999923 91.505,64.1999923 L93.671,64.1999923 C94.26,64.1999923 94.564,63.6679923 94.298,63.1739923 L92.284,59.4309923 Z M89.149,54.1679923 C90.061,54.1679923 90.517,54.2819923 90.517,55.4599923 C90.517,56.6379923 90.061,56.7519923 89.149,56.7519923 L88.18,56.7519923 C87.838,56.7519923 87.591,56.5049923 87.591,56.1629923 L87.591,54.7569923 C87.591,54.4149923 87.838,54.1679923 88.18,54.1679923 L89.149,54.1679923 Z M104.767,63.5539923 C104.767,63.9719923 104.577,64.1999923 104.197,64.1999923 L102.069,64.1999923 C101.708,64.1999923 101.499,64.0099923 101.499,63.6299923 L101.499,61.9769923 C101.499,61.5969923 101.309,61.4069923 100.929,61.4069923 L99.295,61.4069923 C98.934,61.4069923 98.725,61.5969923 98.725,61.9769923 L98.725,63.6299923 C98.725,64.0099923 98.535,64.1999923 98.155,64.1999923 L96.027,64.1999923 C95.666,64.1999923 95.457,63.9719923 95.457,63.5539923 L95.457,55.4979923 C95.457,53.1039923 95.837,50.5579923 100.112,50.5579923 C104.387,50.5579923 104.767,53.1039923 104.767,55.4979923 L104.767,63.5539923 Z M101.499,55.4979923 C101.499,54.5859923 101.366,54.1299923 100.112,54.1299923 C98.858,54.1299923 98.725,54.5859923 98.725,55.4979923 L98.725,57.5689923 C98.725,57.9299923 98.934,58.1389923 99.295,58.1389923 L100.929,58.1389923 C101.309,58.1199923 101.499,57.9299923 101.499,57.5499923 L101.499,55.4979923 Z M109.232,54.7379923 C109.232,54.3579923 109.042,54.1679923 108.662,54.1679923 L106.002,54.1679923 C105.641,54.1679923 105.432,53.9589923 105.432,53.5979923 L105.432,51.4699923 C105.432,51.0899923 105.641,50.8999923 106.002,50.8999923 L115.73,50.8999923 C116.11,50.8999923 116.3,51.0899923 116.3,51.4699923 L116.3,53.5979923 C116.3,53.9589923 116.11,54.1679923 115.73,54.1679923 L113.07,54.1679923 C112.709,54.1679923 112.5,54.3579923 112.5,54.7379923 L112.5,63.6299923 C112.5,63.9909923 112.31,64.1999923 111.93,64.1999923 L109.802,64.1999923 C109.441,64.1999923 109.232,63.9909923 109.232,63.6299923 L109.232,54.7379923 Z M126.598,55.1749923 C126.598,53.9209923 126.332,50.5579923 121.829,50.5579923 C117.326,50.5579923 117.06,53.9209923 117.06,55.1749923 L117.06,59.9249923 C117.06,61.1789923 117.326,64.5419923 121.829,64.5419923 C126.332,64.5419923 126.598,61.1789923 126.598,59.9249923 L126.598,55.1749923 Z M123.33,58.9179923 C123.33,60.3809923 123.235,61.2739923 121.829,61.2739923 C120.423,61.2739923 120.328,60.3809923 120.328,58.9179923 L120.328,56.1819923 C120.328,54.7189923 120.423,53.8259923 121.829,53.8259923 C123.235,53.8259923 123.33,54.7189923 123.33,56.1819923 L123.33,58.9179923 Z M142.558,50.8999923 C142.938,50.8999923 143.128,51.0899923 143.128,51.4699923 L143.128,53.5979923 C143.128,53.9589923 142.938,54.1679923 142.558,54.1679923 L137.96,54.1679923 C137.599,54.1679923 137.39,54.3579923 137.39,54.7379923 L137.39,55.3459923 C137.39,55.7069923 137.599,55.9159923 137.96,55.9159923 L140.905,55.9159923 C141.285,55.9159923 141.475,56.1059923 141.475,56.4859923 L141.475,58.6139923 C141.475,58.9749923 141.285,59.1839923 140.905,59.1839923 L137.96,59.1839923 C137.599,59.1839923 137.39,59.3739923 137.39,59.7539923 L137.39,60.3619923 C137.39,60.7229923 137.599,60.9319923 137.96,60.9319923 L142.558,60.9319923 C142.938,60.9319923 143.128,61.1219923 143.128,61.5019923 L143.128,63.6299923 C143.128,64.0099923 142.938,64.1999923 142.558,64.1999923 L134.578,64.1999923 C134.217,64.1999923 134.008,63.9909923 134.008,63.6299923 L134.008,51.4699923 C134.008,51.0899923 134.217,50.8999923 134.578,50.8999923 L142.558,50.8999923 Z M153.008,55.1369923 C153.35,55.0609923 153.521,54.8519923 153.502,54.5099923 C153.388,53.1419923 152.476,50.5959923 148.562,50.5959923 C144.306,50.5959923 143.964,53.9589923 143.983,54.5289923 C143.983,58.8989923 149.702,58.5379923 150.063,60.1529923 C150.177,60.6659923 149.493,61.2169923 148.562,61.2169923 C147.669,61.2169923 146.966,60.6849923 146.89,59.7729923 C146.852,59.3739923 146.643,59.2029923 146.263,59.2789923 L144.116,59.7539923 C143.774,59.8299923 143.603,60.0389923 143.622,60.3809923 C143.717,61.8629923 144.572,64.4849923 148.562,64.4849923 C153.065,64.4849923 153.711,61.1219923 153.711,60.5519923 C153.711,56.1819923 147.707,56.2199923 147.441,54.7379923 C147.365,54.3009923 147.821,53.8639923 148.562,53.8639923 C149.455,53.8639923 150.082,54.3579923 150.215,55.1369923 C150.272,55.5169923 150.462,55.6879923 150.842,55.6119923 L153.008,55.1369923 Z M161.349,50.8999923 C160.969,50.9189923 160.779,51.1089923 160.779,51.4889923 L160.779,63.6299923 C160.779,63.9909923 160.988,64.1999923 161.349,64.1999923 L163.477,64.1999923 C163.857,64.1999923 164.047,64.0099923 164.047,63.6299923 L164.047,60.5899923 C164.047,60.2099923 164.256,60.0199923 164.617,60.0199923 L165.529,60.0199923 C168.911,60.0199923 170.279,58.5759923 170.279,55.4599923 C170.279,52.3439923 168.911,50.8999923 165.529,50.8999923 L161.349,50.8999923 Z M164.617,56.7519923 C164.256,56.7519923 164.047,56.5429923 164.047,56.1819923 L164.047,54.7379923 C164.047,54.3579923 164.256,54.1679923 164.617,54.1679923 L165.643,54.1679923 C166.555,54.1679923 167.011,54.2819923 167.011,55.4599923 C167.011,56.6379923 166.555,56.7519923 165.643,56.7519923 L164.617,56.7519923 Z M180.805,55.1749923 C180.805,53.9209923 180.539,50.5579923 176.036,50.5579923 C171.533,50.5579923 171.267,53.9209923 171.267,55.1749923 L171.267,59.9249923 C171.267,61.1789923 171.533,64.5419923 176.036,64.5419923 C180.539,64.5419923 180.805,61.1789923 180.805,59.9249923 L180.805,55.1749923 Z M177.537,58.9179923 C177.537,60.3809923 177.442,61.2739923 176.036,61.2739923 C174.63,61.2739923 174.535,60.3809923 174.535,58.9179923 L174.535,56.1819923 C174.535,54.7189923 174.63,53.8259923 176.036,53.8259923 C177.442,53.8259923 177.537,54.7189923 177.537,56.1819923 L177.537,58.9179923 Z M191.312,55.1369923 C191.654,55.0609923 191.825,54.8519923 191.806,54.5099923 C191.692,53.1419923 190.78,50.5959923 186.866,50.5959923 C182.61,50.5959923 182.268,53.9589923 182.287,54.5289923 C182.287,58.8989923 188.006,58.5379923 188.367,60.1529923 C188.481,60.6659923 187.797,61.2169923 186.866,61.2169923 C185.973,61.2169923 185.27,60.6849923 185.194,59.7729923 C185.156,59.3739923 184.947,59.2029923 184.567,59.2789923 L182.42,59.7539923 C182.078,59.8299923 181.907,60.0389923 181.926,60.3809923 C182.021,61.8629923 182.876,64.4849923 186.866,64.4849923 C191.369,64.4849923 192.015,61.1219923 192.015,60.5519923 C192.015,56.1819923 186.011,56.2199923 185.745,54.7379923 C185.669,54.3009923 186.125,53.8639923 186.866,53.8639923 C187.759,53.8639923 188.386,54.3579923 188.519,55.1369923 C188.576,55.5169923 188.766,55.6879923 189.146,55.6119923 L191.312,55.1369923 Z M196.043,50.8999923 C196.423,50.8999923 196.613,51.0899923 196.613,51.4699923 L196.613,63.6299923 C196.613,63.9909923 196.423,64.1999923 196.043,64.1999923 L193.953,64.1999923 C193.592,64.1999923 193.383,63.9909923 193.383,63.6299923 L193.383,51.4699923 C193.383,51.0899923 193.592,50.8999923 193.953,50.8999923 L196.043,50.8999923 Z M199.083,50.8999923 C198.703,50.9189923 198.513,51.1089923 198.513,51.4889923 L198.513,63.6299923 C198.513,63.9909923 198.722,64.1999923 199.083,64.1999923 L203.776,64.1999923 C207.348,64.1999923 208.393,63.0599923 208.393,60.7039923 C208.393,59.5259923 207.823,58.5759923 207.044,58.2149923 C207.823,57.3599923 208.013,56.1059923 208.013,55.4599923 C208.013,52.3439923 206.645,50.8999923 203.073,50.8999923 L199.083,50.8999923 Z M202.351,56.7519923 C201.99,56.7519923 201.781,56.5619923 201.781,56.1819923 L201.781,54.7379923 C201.781,54.3579923 201.99,54.1679923 202.351,54.1679923 L203.377,54.1679923 C204.289,54.1679923 204.745,54.2819923 204.745,55.4599923 C204.745,56.6379923 204.289,56.7519923 203.377,56.7519923 L202.351,56.7519923 Z M202.332,61.5019923 C201.971,61.5019923 201.762,61.3119923 201.762,60.9319923 L201.762,60.0579923 C201.762,59.6779923 201.971,59.4879923 202.332,59.4879923 L203.567,59.4879923 C204.479,59.4879923 204.897,59.6209923 204.897,60.5139923 C204.897,61.4069923 204.441,61.5019923 203.529,61.5019923 L202.332,61.5019923 Z M212.345,50.8999923 C212.725,50.8999923 212.915,51.0899923 212.915,51.4699923 L212.915,60.3619923 C212.915,60.7229923 213.124,60.9319923 213.485,60.9319923 L217.722,60.9319923 C218.102,60.9319923 218.292,61.1219923 218.292,61.5019923 L218.292,63.6299923 C218.292,64.0099923 218.102,64.1999923 217.722,64.1999923 L210.217,64.1999923 C209.856,64.1999923 209.647,63.9909923 209.647,63.6299923 L209.647,51.4699923 C209.647,51.0899923 209.856,50.8999923 210.217,50.8999923 L212.345,50.8999923 Z M228.02,50.8999923 C228.4,50.8999923 228.59,51.0899923 228.59,51.4699923 L228.59,53.5979923 C228.59,53.9589923 228.4,54.1679923 228.02,54.1679923 L223.422,54.1679923 C223.061,54.1679923 222.852,54.3579923 222.852,54.7379923 L222.852,55.3459923 C222.852,55.7069923 223.061,55.9159923 223.422,55.9159923 L226.367,55.9159923 C226.747,55.9159923 226.937,56.1059923 226.937,56.4859923 L226.937,58.6139923 C226.937,58.9749923 226.747,59.1839923 226.367,59.1839923 L223.422,59.1839923 C223.061,59.1839923 222.852,59.3739923 222.852,59.7539923 L222.852,60.3619923 C222.852,60.7229923 223.061,60.9319923 223.422,60.9319923 L228.02,60.9319923 C228.4,60.9319923 228.59,61.1219923 228.59,61.5019923 L228.59,63.6299923 C228.59,64.0099923 228.4,64.1999923 228.02,64.1999923 L220.04,64.1999923 C219.679,64.1999923 219.47,63.9909923 219.47,63.6299923 L219.47,51.4699923 C219.47,51.0899923 219.679,50.8999923 220.04,50.8999923 L228.02,50.8999923 Z" id="BEBER-BARATO-ES-POSI" fill="#F2F2F2"></path>
            </g>
        </g>
    </g>
</svg>